# xmcd
# 
# Track frame offsets:
#     150
#     23090
#     46212
#     68840
#     90620
#     110547
#     133907
#     159367
#     179547
#     205110
#     228110
#     246762
#     274975
#     301077
# 
# Disc length: 4376
# 
# Revision: 2
# Processed by: cddbd v1.5.2PL0 Copyright (c) Steve Scherf et al.
# Submitted via: fre:ac v1.0.17
# 
DISCID=b711160e
DTITLE=やしきたかじん - DO MY BEST
DYEAR=1996
DGENRE=J-Pop
TTITLE0=ICHIZU
TTITLE1=泣いてもいいか
TTITLE2=未練
TTITLE3=なめとんか
TTITLE4=さよならが言えるまで
TTITLE5=心はいつも
TTITLE6=大阪恋物語
TTITLE7=東京
TTITLE8=やっぱ好きやねん
TTITLE9=エゴイズム
TTITLE10=あんた
TTITLE11=夢見る男のために
TTITLE12=明日になれば
TTITLE13=もしも夢が叶うならば
EXTD=
EXTT0=
EXTT1=
EXTT2=
EXTT3=
EXTT4=
EXTT5=
EXTT6=
EXTT7=
EXTT8=
EXTT9=
EXTT10=
EXTT11=
EXTT12=
EXTT13=
PLAYORDER=
